<svg width="72" height="72" viewBox="0 0 72 72" fill="none" xmlns="http://www.w3.org/2000/svg">
<circle cx="36" cy="36" r="36" fill="#E6E9ED"/>
<path d="M52.6667 54.75V50.5833C52.6667 48.3732 51.7887 46.2536 50.2259 44.6908C48.6631 43.128 46.5435 42.25 44.3333 42.25H27.6667C25.4565 42.25 23.3369 43.128 21.7741 44.6908C20.2113 46.2536 19.3333 48.3732 19.3333 50.5833V54.75" stroke="#A7ABB0" stroke-width="3" stroke-linecap="round" stroke-linejoin="round"/>
<path d="M36 33.9167C40.6024 33.9167 44.3333 30.1857 44.3333 25.5833C44.3333 20.981 40.6024 17.25 36 17.25C31.3976 17.25 27.6667 20.981 27.6667 25.5833C27.6667 30.1857 31.3976 33.9167 36 33.9167Z" stroke="#A7ABB0" stroke-width="3" stroke-linecap="round" stroke-linejoin="round"/>
</svg>
