<svg width="16" height="16" viewBox="0 0 16 16" fill="none" xmlns="http://www.w3.org/2000/svg">
<path d="M11.3333 1.99998C11.5083 1.82488 11.7162 1.68599 11.945 1.59123C12.1738 1.49647 12.419 1.44769 12.6666 1.44769C12.9142 1.44769 13.1594 1.49647 13.3882 1.59123C13.617 1.68599 13.8248 1.82488 13.9999 1.99998C14.175 2.17507 14.3139 2.38294 14.4087 2.61172C14.5034 2.84049 14.5522 3.08569 14.5522 3.33331C14.5522 3.58093 14.5034 3.82613 14.4087 4.05491C14.3139 4.28368 14.175 4.49155 13.9999 4.66664L4.99992 13.6666L1.33325 14.6666L2.33325 11L11.3333 1.99998Z" stroke="#A7ABB0" stroke-width="2" stroke-linecap="round" stroke-linejoin="round"/>
</svg>
