<svg width="97" height="32" viewBox="0 0 97 32" fill="none" xmlns="http://www.w3.org/2000/svg">
<path d="M42.7271 23.0001C46.7157 23.0001 49.0808 20.5328 49.0808 16.4419C49.0808 12.3637 46.7157 9.90918 42.8166 9.90918H38.291V23.0001H42.7271ZM40.6625 20.9482V11.961H42.6824C45.3414 11.961 46.7285 13.444 46.7285 16.4419C46.7285 19.4525 45.3414 20.9482 42.612 20.9482H40.6625Z" fill="#2E2E2E"/>
<path d="M62.0918 9.90918H59.7331V18.8325H59.6181L53.4561 9.90918H51.334V23.0001H53.7054V14.0832H53.8141L59.9824 23.0001H62.0918V9.90918Z" fill="#2E2E2E"/>
<path d="M75.4336 9.90918H73.0749V18.8325H72.9599L66.7979 9.90918H64.6758V23.0001H67.0472V14.0832H67.1559L73.3242 23.0001H75.4336V9.90918Z" fill="#2E2E2E"/>
<path d="M80.7406 23.1982C82.2811 23.1982 83.2015 22.4759 83.6234 21.6514H83.7001V23.0001H85.9245V16.4291C85.9245 13.8339 83.8088 13.0541 81.9359 13.0541C79.8713 13.0541 78.286 13.9745 77.7747 15.7643L79.9352 16.0711C80.1653 15.3999 80.8173 14.8247 81.9487 14.8247C83.0225 14.8247 83.6106 15.3744 83.6106 16.3396V16.3779C83.6106 17.0427 82.9139 17.0747 81.1816 17.26C79.2768 17.4646 77.4551 18.0335 77.4551 20.2451C77.4551 22.1755 78.8677 23.1982 80.7406 23.1982ZM81.3414 21.498C80.3762 21.498 79.6859 21.0569 79.6859 20.2068C79.6859 19.3183 80.4593 18.9475 81.4949 18.8005C82.1021 18.7174 83.3166 18.564 83.617 18.3211V19.4781C83.617 20.5711 82.7349 21.498 81.3414 21.498Z" fill="#2E2E2E"/>
<path d="M92.5978 23.1919C94.8862 23.1919 96.4586 22.0732 96.8677 20.3666L94.7072 20.1237C94.394 20.9546 93.6269 21.3893 92.6298 21.3893C91.1341 21.3893 90.1433 20.4049 90.1241 18.7238H96.9636V18.0143C96.9636 14.569 94.8926 13.0541 92.4764 13.0541C89.6639 13.0541 87.8294 15.1187 87.8294 18.1485C87.8294 21.2295 89.6383 23.1919 92.5978 23.1919ZM90.1305 17.1642C90.2008 15.9113 91.1277 14.8566 92.5083 14.8566C93.8379 14.8566 94.7328 15.8282 94.7456 17.1642H90.1305Z" fill="#2E2E2E"/>
<circle cx="16" cy="16" r="16" fill="#297AF7"/>
<path d="M12.6201 22.302V9H17.3721C18.5601 9 19.5921 9.18 20.4681 9.54C21.3561 9.888 22.0941 10.368 22.6821 10.98C23.2821 11.58 23.7261 12.264 24.0141 13.032C24.3141 13.8 24.4641 14.598 24.4641 15.426V15.822C24.4641 16.614 24.3141 17.394 24.0141 18.162C23.7261 18.93 23.2821 19.626 22.6821 20.25C22.0941 20.874 21.3561 21.372 20.4681 21.744C19.5921 22.116 18.5601 22.302 17.3721 22.302H12.6201ZM17.5341 11.376H15.1761V19.926H17.5341C18.4341 19.926 19.2081 19.746 19.8561 19.386C20.5041 19.014 21.0021 18.504 21.3501 17.856C21.6981 17.208 21.8721 16.464 21.8721 15.624C21.8721 14.316 21.4881 13.284 20.7201 12.528C19.9521 11.76 18.8901 11.376 17.5341 11.376Z" fill="white"/>
<circle cx="9" cy="13" r="2" fill="white"/>
<circle cx="9" cy="20" r="2" fill="white"/>
</svg>
