<svg width="97" height="32" viewBox="0 0 97 32" fill="none" xmlns="http://www.w3.org/2000/svg">
<path d="M42.7273 23.0001C46.716 23.0001 49.081 20.5328 49.081 16.4419C49.081 12.3637 46.716 9.90918 42.8168 9.90918H38.2913V23.0001H42.7273ZM40.6627 20.9482V11.961H42.6826C45.3417 11.961 46.7288 13.444 46.7288 16.4419C46.7288 19.4525 45.3417 20.9482 42.6123 20.9482H40.6627Z" fill="white"/>
<path d="M62.092 9.90918H59.7334V18.8325H59.6183L53.4564 9.90918H51.3342V23.0001H53.7057V14.0832H53.8143L59.9827 23.0001H62.092V9.90918Z" fill="white"/>
<path d="M75.4338 9.90918H73.0752V18.8325H72.9601L66.7982 9.90918H64.676V23.0001H67.0475V14.0832H67.1561L73.3245 23.0001H75.4338V9.90918Z" fill="white"/>
<path d="M80.7408 23.1982C82.2813 23.1982 83.2018 22.4759 83.6236 21.6514H83.7003V23.0001H85.9248V16.4291C85.9248 13.8339 83.809 13.0541 81.9361 13.0541C79.8715 13.0541 78.2863 13.9745 77.7749 15.7643L79.9354 16.0711C80.1655 15.3999 80.8175 14.8247 81.9489 14.8247C83.0228 14.8247 83.6109 15.3744 83.6109 16.3396V16.3779C83.6109 17.0427 82.9141 17.0747 81.1819 17.26C79.2771 17.4646 77.4553 18.0335 77.4553 20.2451C77.4553 22.1755 78.868 23.1982 80.7408 23.1982ZM81.3417 21.498C80.3765 21.498 79.6861 21.0569 79.6861 20.2068C79.6861 19.3183 80.4596 18.9475 81.4951 18.8005C82.1023 18.7174 83.3168 18.564 83.6173 18.3211V19.4781C83.6173 20.5711 82.7352 21.498 81.3417 21.498Z" fill="white"/>
<path d="M92.5981 23.1919C94.8864 23.1919 96.4589 22.0732 96.868 20.3666L94.7075 20.1237C94.3942 20.9546 93.6272 21.3893 92.63 21.3893C91.1343 21.3893 90.1435 20.4049 90.1244 18.7238H96.9638V18.0143C96.9638 14.569 94.8928 13.0541 92.4766 13.0541C89.6641 13.0541 87.8296 15.1187 87.8296 18.1485C87.8296 21.2295 89.6386 23.1919 92.5981 23.1919ZM90.1307 17.1642C90.2011 15.9113 91.1279 14.8566 92.5086 14.8566C93.8381 14.8566 94.733 15.8282 94.7458 17.1642H90.1307Z" fill="white"/>
<circle cx="16" cy="16" r="16" fill="#297AF7"/>
<path d="M12.6201 22.302V9H17.3721C18.5601 9 19.5921 9.18 20.4681 9.54C21.3561 9.888 22.0941 10.368 22.6821 10.98C23.2821 11.58 23.7261 12.264 24.0141 13.032C24.3141 13.8 24.4641 14.598 24.4641 15.426V15.822C24.4641 16.614 24.3141 17.394 24.0141 18.162C23.7261 18.93 23.2821 19.626 22.6821 20.25C22.0941 20.874 21.3561 21.372 20.4681 21.744C19.5921 22.116 18.5601 22.302 17.3721 22.302H12.6201ZM17.5341 11.376H15.1761V19.926H17.5341C18.4341 19.926 19.2081 19.746 19.8561 19.386C20.5041 19.014 21.0021 18.504 21.3501 17.856C21.6981 17.208 21.8721 16.464 21.8721 15.624C21.8721 14.316 21.4881 13.284 20.7201 12.528C19.9521 11.76 18.8901 11.376 17.5341 11.376Z" fill="white"/>
<circle cx="9" cy="13" r="2" fill="white"/>
<circle cx="9" cy="20" r="2" fill="white"/>
</svg>
