<svg width="32" height="32" viewBox="0 0 32 32" fill="none" xmlns="http://www.w3.org/2000/svg">
<circle cx="16" cy="16" r="16" fill="#297AF7"/>
<path d="M12.62 22.302V9H17.372C18.56 9 19.592 9.18 20.468 9.54C21.356 9.888 22.094 10.368 22.682 10.98C23.282 11.58 23.726 12.264 24.014 13.032C24.314 13.8 24.464 14.598 24.464 15.426V15.822C24.464 16.614 24.314 17.394 24.014 18.162C23.726 18.93 23.282 19.626 22.682 20.25C22.094 20.874 21.356 21.372 20.468 21.744C19.592 22.116 18.56 22.302 17.372 22.302H12.62ZM17.534 11.376H15.176V19.926H17.534C18.434 19.926 19.208 19.746 19.856 19.386C20.504 19.014 21.002 18.504 21.35 17.856C21.698 17.208 21.872 16.464 21.872 15.624C21.872 14.316 21.488 13.284 20.72 12.528C19.952 11.76 18.89 11.376 17.534 11.376Z" fill="white"/>
<circle cx="9" cy="13" r="2" fill="white"/>
<circle cx="9" cy="20" r="2" fill="white"/>
</svg>
