<svg width="32" height="32" viewBox="0 0 32 32" fill="none" xmlns="http://www.w3.org/2000/svg">
<circle cx="16" cy="16" r="16" fill="#007AB9"/>
<g clip-path="url(#clip0)">
<path d="M16 27.999C22.6274 27.999 28 22.6264 28 15.999C28 9.37158 22.6274 3.99899 16 3.99899C9.37258 3.99899 4 9.37158 4 15.999C4 22.6264 9.37258 27.999 16 27.999Z" fill="#007AB9"/>
<path d="M23.1688 16.9654V21.9127H20.3005V17.2969C20.3005 16.138 19.8863 15.3465 18.8478 15.3465C18.0552 15.3465 17.5844 15.8793 17.3765 16.3953C17.301 16.5797 17.2815 16.8357 17.2815 17.0944V21.9125H14.413C14.413 21.9125 14.4515 14.0949 14.413 13.2857H17.2817V14.5082C17.276 14.5178 17.2678 14.5272 17.2627 14.5364H17.2817V14.5082C17.6629 13.9216 18.3427 13.0831 19.8669 13.0831C21.754 13.0831 23.1688 14.3161 23.1688 16.9654ZM11.4122 9.12723C10.431 9.12723 9.78906 9.77132 9.78906 10.6175C9.78906 11.4458 10.4124 12.1085 11.3746 12.1085H11.3932C12.3936 12.1085 13.0157 11.4458 13.0157 10.6175C12.9967 9.77132 12.3936 9.12723 11.4122 9.12723ZM9.95955 21.9127H12.827V13.2857H9.95955V21.9127Z" fill="#F1F2F2"/>
</g>
<defs>
<clipPath id="clip0">
<rect width="24" height="24" fill="white" transform="translate(4 4)"/>
</clipPath>
</defs>
</svg>
