<svg width="16" height="16" viewBox="0 0 16 16" fill="none" xmlns="http://www.w3.org/2000/svg">
<path d="M7.99992 8.66634C8.36811 8.66634 8.66659 8.36786 8.66659 7.99967C8.66659 7.63148 8.36811 7.33301 7.99992 7.33301C7.63173 7.33301 7.33325 7.63148 7.33325 7.99967C7.33325 8.36786 7.63173 8.66634 7.99992 8.66634Z" fill="#A7ABB0" stroke="#A7ABB0" stroke-width="2" stroke-linecap="round" stroke-linejoin="round"/>
<path d="M7.99992 3.99984C8.36811 3.99984 8.66659 3.70136 8.66659 3.33317C8.66659 2.96498 8.36811 2.6665 7.99992 2.6665C7.63173 2.6665 7.33325 2.96498 7.33325 3.33317C7.33325 3.70136 7.63173 3.99984 7.99992 3.99984Z" fill="#A7ABB0" stroke="#A7ABB0" stroke-width="2" stroke-linecap="round" stroke-linejoin="round"/>
<path d="M7.99992 13.3333C8.36811 13.3333 8.66659 13.0349 8.66659 12.6667C8.66659 12.2985 8.36811 12 7.99992 12C7.63173 12 7.33325 12.2985 7.33325 12.6667C7.33325 13.0349 7.63173 13.3333 7.99992 13.3333Z" fill="#A7ABB0" stroke="#A7ABB0" stroke-width="2" stroke-linecap="round" stroke-linejoin="round"/>
</svg>
