<svg width="125" height="64" viewBox="0 0 125 64" fill="none" xmlns="http://www.w3.org/2000/svg">
<path d="M4.31885 37.4564C2.22113 37.7291 0.565564 39.4856 0 40.3298C4.40112 40.3298 10.8828 46.4012 13.5735 49.4369C19.2086 61.4423 36.0761 60.3807 43.8055 58.3492C62.4383 66.453 77.2424 63.0894 82.3153 60.3946C67.6312 60.7453 47.1818 52.9596 40.4636 49.4369C56.1965 41.5473 56.6078 32.7811 56.9163 26.109C56.2582 26.7714 53.5915 28.3168 52.906 28.5441C55.4253 26.0116 55.3225 20.5571 54.6027 18.1221C54.1913 18.9792 51.055 22.3753 50.5409 22.8461C52.145 18.1708 51.7406 11.937 50.5409 10.4273C50.253 11.674 47.833 15.8656 46.8904 16.661C48.0421 11.0117 45.5536 5.68705 43.8055 4.63186C43.9701 6.57991 43.497 10.4922 43.1371 11.5961C42.3556 5.51822 36.7103 0.297466 34.4994 0.102661C39.353 16.7 27.1985 32.6999 20.5146 38.6252C14.098 34.4175 15.5444 31.1253 17.0698 30.0051C9.46035 30.3168 5.39857 35.1025 4.31885 37.4564Z" fill="#D02B43"/>
<path d="M20.4632 38.7227C22.1084 26.6935 8.99763 13.6092 2.93066 10.9144C8.56574 9.70657 12.9909 11.8721 14.499 13.1059C14.2522 12.1708 13.1622 10.8007 12.6481 10.2325C16.1032 10.6222 18.9207 12.8949 19.8976 13.9825C19.8565 13.0475 19.6062 11.6449 19.4863 11.0605C22.0776 11.6449 24.4392 14.5832 25.2962 15.9793C25.7075 15.4338 25.8446 13.8364 25.8617 13.1059C28.3296 14.976 29.2894 18.2033 29.4608 19.5832C30.0366 19.1156 30.1806 17.8299 30.1806 17.2455C31.7847 18.5702 32.3571 21.0442 32.4428 22.1156C30.7976 26.5474 25.6047 34.3883 20.4632 38.7227Z" fill="#A72337"/>
<path d="M6.42686 34.5343C5.34715 35.557 4.52451 36.872 4.31885 37.4564C5.75847 38.6252 5.44998 40.8167 4.47309 41.7908C7.2495 43.2518 11.6198 47.1479 13.5735 49.4368C13.882 47.0505 13.008 44.031 11.0542 41.7908C9.08486 39.5327 7.71223 37.4564 6.42686 34.5343Z" fill="#333030"/>
<path d="M40.515 49.3883C36.3606 47.7519 32.0315 45.7357 30.1292 44.6156C38.2527 43.0571 42.6744 40.7977 46.2734 38.674C49.8725 36.5503 55.4767 31.0279 56.9163 26.1578C57.4305 40.3299 46.8733 46.2065 40.515 49.3883Z" fill="#A72337"/>
<path d="M43.3942 55.6707C61.8625 63.0732 77.1738 62.083 82.3153 60.3947C68.8446 67.0667 50.9693 61.7096 43.8569 58.3492C30.5302 61.583 21.5771 57.9434 18.8179 55.6707C25.9879 58.7774 39.7389 56.3231 43.3523 55.6781L43.3942 55.6707Z" fill="#A72337"/>
<path d="M69.3405 18.489C68.9884 18.0313 68.5424 17.6791 68.0025 17.4327C67.4626 17.1862 66.9051 17.0629 66.33 17.0629C65.6257 17.0629 64.9861 17.1979 64.411 17.4679C63.8476 17.7261 63.3605 18.0841 62.9497 18.5418C62.5506 18.9996 62.2396 19.5395 62.0166 20.1615C61.7936 20.7719 61.6821 21.4291 61.6821 22.1334C61.6821 22.7906 61.7877 23.4127 61.999 23.9996C62.2102 24.5864 62.5154 25.1029 62.9145 25.5489C63.3135 25.9949 63.8006 26.347 64.3757 26.6052C64.9509 26.8634 65.6023 26.9925 66.33 26.9925C67.0459 26.9925 67.6739 26.8458 68.2138 26.5524C68.7537 26.259 69.2114 25.8482 69.587 25.32L71.0131 26.3939C70.9192 26.523 70.7548 26.7108 70.5201 26.9573C70.2854 27.1921 69.9743 27.4327 69.587 27.6791C69.1997 27.9139 68.7302 28.1193 68.1786 28.2953C67.6387 28.4831 67.0107 28.577 66.2948 28.577C65.3088 28.577 64.4168 28.3892 63.6187 28.0137C62.8323 27.6381 62.1574 27.1451 61.594 26.5348C61.0424 25.9245 60.6199 25.2378 60.3264 24.4749C60.033 23.7003 59.8863 22.9198 59.8863 22.1334C59.8863 21.1709 60.0448 20.2848 60.3617 19.4749C60.6786 18.6533 61.1187 17.9491 61.6821 17.3622C62.2572 16.7637 62.9438 16.3 63.7419 15.9714C64.5401 15.6428 65.4203 15.4784 66.3828 15.4784C67.2044 15.4784 68.0084 15.6369 68.7948 15.9538C69.5929 16.2707 70.2443 16.7578 70.749 17.4151L69.3405 18.489ZM72.6874 20.9362C73.1334 20.5254 73.6498 20.2202 74.2367 20.0207C74.8235 19.8094 75.4104 19.7038 75.9972 19.7038C76.6076 19.7038 77.1299 19.7801 77.5641 19.9327C78.0102 20.0852 78.374 20.2906 78.6557 20.5489C78.9374 20.8071 79.1428 21.1064 79.2719 21.4468C79.4127 21.7754 79.4832 22.1216 79.4832 22.4855V26.746C79.4832 27.0395 79.489 27.3094 79.5008 27.5559C79.5125 27.8024 79.5301 28.0371 79.5536 28.2601H78.1451C78.1099 27.8376 78.0923 27.4151 78.0923 26.9925H78.0571C77.705 27.5324 77.2883 27.9139 76.8071 28.1369C76.3259 28.3599 75.7684 28.4714 75.1346 28.4714C74.7472 28.4714 74.3775 28.4186 74.0254 28.3129C73.6733 28.2073 73.3623 28.0489 73.0923 27.8376C72.8341 27.6263 72.6287 27.3681 72.4761 27.0629C72.3235 26.746 72.2472 26.3822 72.2472 25.9714C72.2472 25.4315 72.3646 24.9796 72.5994 24.6158C72.8458 24.2519 73.1745 23.9585 73.5853 23.7355C74.0078 23.5007 74.4949 23.3364 75.0465 23.2425C75.6099 23.1369 76.2085 23.0841 76.8423 23.0841H78.0043V22.732C78.0043 22.5207 77.9632 22.3094 77.8811 22.0982C77.7989 21.8869 77.6757 21.6991 77.5113 21.5348C77.347 21.3587 77.1416 21.2237 76.8951 21.1298C76.6487 21.0242 76.3552 20.9714 76.0149 20.9714C75.7097 20.9714 75.4397 21.0007 75.205 21.0594C74.982 21.1181 74.7766 21.1944 74.5888 21.2883C74.401 21.3705 74.2308 21.4702 74.0782 21.5876C73.9257 21.705 73.7789 21.8165 73.6381 21.9221L72.6874 20.9362ZM77.1592 24.246C76.7836 24.246 76.3963 24.2695 75.9972 24.3165C75.6099 24.3517 75.2519 24.428 74.9233 24.5453C74.6064 24.6627 74.3423 24.827 74.131 25.0383C73.9315 25.2496 73.8318 25.5195 73.8318 25.8482C73.8318 26.3294 73.9902 26.6756 74.3071 26.8869C74.6357 27.0982 75.0759 27.2038 75.6275 27.2038C76.0618 27.2038 76.4315 27.1334 76.7367 26.9925C77.0418 26.8399 77.2883 26.6463 77.4761 26.4115C77.6639 26.1768 77.7989 25.9186 77.8811 25.6369C77.9632 25.3435 78.0043 25.0559 78.0043 24.7742V24.246H77.1592ZM81.7817 19.9151H83.3662V21.2003H83.4014C83.507 20.9773 83.6479 20.7777 83.8239 20.6017C84 20.4139 84.1936 20.2554 84.4049 20.1263C84.6279 19.9972 84.8685 19.8975 85.1267 19.827C85.3849 19.7449 85.6432 19.7038 85.9014 19.7038C86.1596 19.7038 86.3943 19.739 86.6056 19.8094L86.5352 21.5172C86.4061 21.482 86.277 21.4526 86.1479 21.4291C86.0187 21.4057 85.8896 21.3939 85.7605 21.3939C84.9859 21.3939 84.3932 21.6111 83.9824 22.0453C83.5716 22.4796 83.3662 23.1545 83.3662 24.07V28.2601H81.7817V19.9151ZM96.351 28.2601H94.7665V27.0629H94.7313C94.4261 27.509 94.0036 27.8552 93.4637 28.1017C92.9355 28.3482 92.3897 28.4714 91.8264 28.4714C91.1808 28.4714 90.594 28.3599 90.0658 28.1369C89.5494 27.9139 89.1034 27.6029 88.7278 27.2038C88.3639 26.8047 88.0822 26.3411 87.8827 25.8129C87.6832 25.2848 87.5834 24.7097 87.5834 24.0876C87.5834 23.4655 87.6832 22.8904 87.8827 22.3622C88.0822 21.8223 88.3639 21.3587 88.7278 20.9714C89.1034 20.5723 89.5494 20.2613 90.0658 20.0383C90.594 19.8153 91.1808 19.7038 91.8264 19.7038C92.425 19.7038 92.9883 19.8329 93.5165 20.0911C94.0447 20.3376 94.4496 20.678 94.7313 21.1122H94.7665V14.9503H96.351V28.2601ZM92.02 26.9925C92.4426 26.9925 92.824 26.9221 93.1644 26.7813C93.5048 26.6287 93.7923 26.4291 94.0271 26.1827C94.2618 25.9245 94.4437 25.6193 94.5728 25.2672C94.7019 24.9033 94.7665 24.5101 94.7665 24.0876C94.7665 23.6651 94.7019 23.2777 94.5728 22.9256C94.4437 22.5618 94.2618 22.2566 94.0271 22.0101C93.7923 21.7519 93.5048 21.5524 93.1644 21.4115C92.824 21.259 92.4426 21.1827 92.02 21.1827C91.5975 21.1827 91.216 21.259 90.8757 21.4115C90.5353 21.5524 90.2477 21.7519 90.013 22.0101C89.7782 22.2566 89.5963 22.5618 89.4672 22.9256C89.3381 23.2777 89.2735 23.6651 89.2735 24.0876C89.2735 24.5101 89.3381 24.9033 89.4672 25.2672C89.5963 25.6193 89.7782 25.9245 90.013 26.1827C90.2477 26.4291 90.5353 26.6287 90.8757 26.7813C91.216 26.9221 91.5975 26.9925 92.02 26.9925ZM98.8744 19.9151H100.459V28.2601H98.8744V19.9151ZM98.5047 16.9221C98.5047 16.6052 98.6162 16.3352 98.8392 16.1122C99.0739 15.8775 99.3497 15.7601 99.6666 15.7601C99.9835 15.7601 100.254 15.8775 100.477 16.1122C100.711 16.3352 100.829 16.6052 100.829 16.9221C100.829 17.239 100.711 17.5148 100.477 17.7496C100.254 17.9726 99.9835 18.0841 99.6666 18.0841C99.3497 18.0841 99.0739 17.9726 98.8392 17.7496C98.6162 17.5148 98.5047 17.239 98.5047 16.9221ZM102.981 19.9151H104.565V21.2003H104.6C104.8 20.7543 105.146 20.3963 105.639 20.1263C106.132 19.8446 106.701 19.7038 107.347 19.7038C107.746 19.7038 108.127 19.7683 108.491 19.8975C108.867 20.0148 109.19 20.2026 109.46 20.4608C109.741 20.7191 109.964 21.0536 110.129 21.4644C110.293 21.8634 110.375 22.3388 110.375 22.8904V28.2601H108.79V23.3306C108.79 22.9432 108.738 22.6146 108.632 22.3446C108.526 22.0629 108.386 21.8399 108.21 21.6756C108.033 21.4996 107.828 21.3763 107.593 21.3059C107.37 21.2237 107.136 21.1827 106.889 21.1827C106.56 21.1827 106.255 21.2355 105.974 21.3411C105.692 21.4468 105.445 21.6169 105.234 21.8517C105.023 22.0747 104.859 22.3622 104.741 22.7144C104.624 23.0665 104.565 23.4831 104.565 23.9644V28.2601H102.981V19.9151ZM112.799 20.9362C113.245 20.5254 113.761 20.2202 114.348 20.0207C114.935 19.8094 115.522 19.7038 116.109 19.7038C116.719 19.7038 117.241 19.7801 117.675 19.9327C118.121 20.0852 118.485 20.2906 118.767 20.5489C119.049 20.8071 119.254 21.1064 119.383 21.4468C119.524 21.7754 119.594 22.1216 119.594 22.4855V26.746C119.594 27.0395 119.6 27.3094 119.612 27.5559C119.624 27.8024 119.641 28.0371 119.665 28.2601H118.256C118.221 27.8376 118.204 27.4151 118.204 26.9925H118.168C117.816 27.5324 117.4 27.9139 116.918 28.1369C116.437 28.3599 115.88 28.4714 115.246 28.4714C114.859 28.4714 114.489 28.4186 114.137 28.3129C113.785 28.2073 113.474 28.0489 113.204 27.8376C112.945 27.6263 112.74 27.3681 112.587 27.0629C112.435 26.746 112.359 26.3822 112.359 25.9714C112.359 25.4315 112.476 24.9796 112.711 24.6158C112.957 24.2519 113.286 23.9585 113.697 23.7355C114.119 23.5007 114.606 23.3364 115.158 23.2425C115.721 23.1369 116.32 23.0841 116.954 23.0841H118.116V22.732C118.116 22.5207 118.074 22.3094 117.992 22.0982C117.91 21.8869 117.787 21.6991 117.623 21.5348C117.458 21.3587 117.253 21.2237 117.006 21.1298C116.76 21.0242 116.467 20.9714 116.126 20.9714C115.821 20.9714 115.551 21.0007 115.316 21.0594C115.093 21.1181 114.888 21.1944 114.7 21.2883C114.512 21.3705 114.342 21.4702 114.19 21.5876C114.037 21.705 113.89 21.8165 113.749 21.9221L112.799 20.9362ZM117.27 24.246C116.895 24.246 116.508 24.2695 116.109 24.3165C115.721 24.3517 115.363 24.428 115.035 24.5453C114.718 24.6627 114.454 24.827 114.242 25.0383C114.043 25.2496 113.943 25.5195 113.943 25.8482C113.943 26.3294 114.101 26.6756 114.418 26.8869C114.747 27.0982 115.187 27.2038 115.739 27.2038C116.173 27.2038 116.543 27.1334 116.848 26.9925C117.153 26.8399 117.4 26.6463 117.587 26.4115C117.775 26.1768 117.91 25.9186 117.992 25.6369C118.074 25.3435 118.116 25.0559 118.116 24.7742V24.246H117.27ZM122.016 14.9503H123.601V28.2601H122.016V14.9503ZM63.2666 41.3798H59.2525V39.7953H68.9708V41.3798H64.9567V52.2601H63.2666V41.3798ZM68.4407 44.9362C68.8867 44.5254 69.4032 44.2202 69.99 44.0207C70.5769 43.8094 71.1637 43.7038 71.7506 43.7038C72.3609 43.7038 72.8832 43.7801 73.3175 43.9327C73.7635 44.0852 74.1273 44.2906 74.409 44.5489C74.6907 44.8071 74.8961 45.1064 75.0252 45.4468C75.1661 45.7754 75.2365 46.1216 75.2365 46.4855V50.746C75.2365 51.0395 75.2424 51.3094 75.2541 51.5559C75.2658 51.8024 75.2834 52.0371 75.3069 52.2601H73.8985C73.8633 51.8376 73.8456 51.4151 73.8456 50.9925H73.8104C73.4583 51.5324 73.0417 51.9139 72.5604 52.1369C72.0792 52.3599 71.5217 52.4714 70.8879 52.4714C70.5006 52.4714 70.1309 52.4186 69.7787 52.3129C69.4266 52.2073 69.1156 52.0489 68.8456 51.8376C68.5874 51.6263 68.382 51.3681 68.2294 51.0629C68.0769 50.746 68.0006 50.3822 68.0006 49.9714C68.0006 49.4315 68.1179 48.9796 68.3527 48.6158C68.5992 48.2519 68.9278 47.9585 69.3386 47.7355C69.7611 47.5007 70.2482 47.3364 70.7999 47.2425C71.3633 47.1369 71.9618 47.0841 72.5956 47.0841H73.7576V46.732C73.7576 46.5207 73.7165 46.3094 73.6344 46.0982C73.5522 45.8869 73.429 45.6991 73.2647 45.5348C73.1003 45.3587 72.8949 45.2237 72.6485 45.1298C72.402 45.0242 72.1086 44.9714 71.7682 44.9714C71.463 44.9714 71.1931 45.0007 70.9583 45.0594C70.7353 45.1181 70.5299 45.1944 70.3421 45.2883C70.1543 45.3705 69.9841 45.4702 69.8316 45.5876C69.679 45.705 69.5323 45.8165 69.3914 45.9221L68.4407 44.9362ZM72.9125 48.246C72.537 48.246 72.1496 48.2695 71.7506 48.3165C71.3633 48.3517 71.0053 48.428 70.6766 48.5453C70.3597 48.6627 70.0956 48.827 69.8844 49.0383C69.6848 49.2496 69.5851 49.5195 69.5851 49.8482C69.5851 50.3294 69.7435 50.6756 70.0604 50.8869C70.3891 51.0982 70.8292 51.2038 71.3809 51.2038C71.8151 51.2038 72.1848 51.1334 72.49 50.9925C72.7952 50.8399 73.0417 50.6463 73.2294 50.4115C73.4172 50.1768 73.5522 49.9186 73.6344 49.6369C73.7165 49.3435 73.7576 49.0559 73.7576 48.7742V48.246H72.9125ZM77.6582 38.9503H79.2427V52.2601H77.6582V38.9503ZM82.9617 48.6686C82.9617 49.0324 83.0379 49.3669 83.1905 49.6721C83.3548 49.9655 83.5661 50.2179 83.8243 50.4291C84.0825 50.6404 84.3818 50.8047 84.7222 50.9221C85.0626 51.0395 85.4147 51.0982 85.7786 51.0982C86.2715 51.0982 86.6999 50.9867 87.0638 50.7637C87.4276 50.5289 87.7621 50.2237 88.0673 49.8482L89.2645 50.7637C88.3842 51.9022 87.1518 52.4714 85.5673 52.4714C84.91 52.4714 84.3114 52.3599 83.7715 52.1369C83.2433 51.9139 82.7915 51.6087 82.4159 51.2214C82.052 50.8223 81.7703 50.3587 81.5708 49.8306C81.3713 49.2906 81.2715 48.7097 81.2715 48.0876C81.2715 47.4655 81.3771 46.8904 81.5884 46.3622C81.8114 45.8223 82.1107 45.3587 82.4863 44.9714C82.8736 44.5723 83.3314 44.2613 83.8595 44.0383C84.3877 43.8153 84.9628 43.7038 85.5849 43.7038C86.3243 43.7038 86.9464 43.8329 87.4511 44.0911C87.9675 44.3493 88.3901 44.6897 88.7187 45.1122C89.0473 45.523 89.2821 45.9925 89.4229 46.5207C89.5755 47.0371 89.6518 47.5653 89.6518 48.1052V48.6686H82.9617ZM87.9617 47.401C87.9499 47.0489 87.8912 46.7261 87.7856 46.4327C87.6917 46.1392 87.545 45.8869 87.3455 45.6756C87.1459 45.4526 86.8936 45.2824 86.5884 45.1651C86.295 45.036 85.9487 44.9714 85.5497 44.9714C85.1624 44.9714 84.8044 45.0477 84.4757 45.2003C84.1588 45.3411 83.8889 45.5289 83.6659 45.7637C83.4429 45.9984 83.2668 46.2625 83.1377 46.5559C83.0203 46.8376 82.9617 47.1193 82.9617 47.401H87.9617ZM91.5473 43.9151H93.1318V45.2003H93.167C93.3665 44.7543 93.7128 44.3963 94.2057 44.1263C94.6987 43.8446 95.2679 43.7038 95.9135 43.7038C96.3125 43.7038 96.694 43.7683 97.0579 43.8975C97.4334 44.0148 97.7562 44.2026 98.0262 44.4608C98.3079 44.7191 98.5309 45.0536 98.6952 45.4644C98.8595 45.8634 98.9417 46.3388 98.9417 46.8904V52.2601H97.3571V47.3306C97.3571 46.9432 97.3043 46.6146 97.1987 46.3446C97.0931 46.0629 96.9522 45.8399 96.7762 45.6756C96.6001 45.4996 96.3947 45.3763 96.16 45.3059C95.937 45.2237 95.7022 45.1827 95.4557 45.1827C95.1271 45.1827 94.8219 45.2355 94.5402 45.3411C94.2586 45.4468 94.0121 45.6169 93.8008 45.8517C93.5895 46.0747 93.4252 46.3622 93.3079 46.7144C93.1905 47.0665 93.1318 47.4831 93.1318 47.9644V52.2601H91.5473V43.9151ZM105.802 45.2883H103.531V49.0735C103.531 49.3083 103.537 49.543 103.548 49.7777C103.56 50.0007 103.601 50.2061 103.672 50.3939C103.754 50.57 103.871 50.7167 104.024 50.8341C104.188 50.9397 104.423 50.9925 104.728 50.9925C104.916 50.9925 105.109 50.9749 105.309 50.9397C105.509 50.9045 105.69 50.8399 105.855 50.746V52.1897C105.667 52.2953 105.42 52.3658 105.115 52.401C104.822 52.4479 104.593 52.4714 104.429 52.4714C103.818 52.4714 103.343 52.3892 103.003 52.2249C102.674 52.0489 102.428 51.8259 102.263 51.5559C102.111 51.286 102.017 50.9867 101.982 50.658C101.958 50.3176 101.946 49.9773 101.946 49.6369V45.2883H100.115V43.9151H101.946V41.5735H103.531V43.9151H105.802V45.2883ZM109.096 52.3658C108.779 52.3658 108.504 52.2543 108.269 52.0313C108.046 51.7965 107.934 51.5207 107.934 51.2038C107.934 50.8869 108.046 50.6169 108.269 50.3939C108.504 50.1592 108.779 50.0418 109.096 50.0418C109.413 50.0418 109.683 50.1592 109.906 50.3939C110.141 50.6169 110.258 50.8869 110.258 51.2038C110.258 51.5207 110.141 51.7965 109.906 52.0313C109.683 52.2543 109.413 52.3658 109.096 52.3658ZM112.781 44.9362C113.227 44.5254 113.744 44.2202 114.331 44.0207C114.918 43.8094 115.504 43.7038 116.091 43.7038C116.702 43.7038 117.224 43.7801 117.658 43.9327C118.104 44.0852 118.468 44.2906 118.75 44.5489C119.031 44.8071 119.237 45.1064 119.366 45.4468C119.507 45.7754 119.577 46.1216 119.577 46.4855V50.746C119.577 51.0395 119.583 51.3094 119.595 51.5559C119.607 51.8024 119.624 52.0371 119.648 52.2601H118.239C118.204 51.8376 118.186 51.4151 118.186 50.9925H118.151C117.799 51.5324 117.382 51.9139 116.901 52.1369C116.42 52.3599 115.862 52.4714 115.229 52.4714C114.841 52.4714 114.472 52.4186 114.119 52.3129C113.767 52.2073 113.456 52.0489 113.186 51.8376C112.928 51.6263 112.723 51.3681 112.57 51.0629C112.418 50.746 112.341 50.3822 112.341 49.9714C112.341 49.4315 112.459 48.9796 112.693 48.6158C112.94 48.2519 113.269 47.9585 113.679 47.7355C114.102 47.5007 114.589 47.3364 115.141 47.2425C115.704 47.1369 116.303 47.0841 116.936 47.0841H118.098V46.732C118.098 46.5207 118.057 46.3094 117.975 46.0982C117.893 45.8869 117.77 45.6991 117.605 45.5348C117.441 45.3587 117.236 45.2237 116.989 45.1298C116.743 45.0242 116.449 44.9714 116.109 44.9714C115.804 44.9714 115.534 45.0007 115.299 45.0594C115.076 45.1181 114.871 45.1944 114.683 45.2883C114.495 45.3705 114.325 45.4702 114.172 45.5876C114.02 45.705 113.873 45.8165 113.732 45.9221L112.781 44.9362ZM117.253 48.246C116.878 48.246 116.49 48.2695 116.091 48.3165C115.704 48.3517 115.346 48.428 115.017 48.5453C114.7 48.6627 114.436 48.827 114.225 49.0383C114.026 49.2496 113.926 49.5195 113.926 49.8482C113.926 50.3294 114.084 50.6756 114.401 50.8869C114.73 51.0982 115.17 51.2038 115.722 51.2038C116.156 51.2038 116.526 51.1334 116.831 50.9925C117.136 50.8399 117.382 50.6463 117.57 50.4115C117.758 50.1768 117.893 49.9186 117.975 49.6369C118.057 49.3435 118.098 49.0559 118.098 48.7742V48.246H117.253ZM121.999 43.9151H123.583V52.2601H121.999V43.9151ZM121.629 40.9221C121.629 40.6052 121.741 40.3352 121.964 40.1122C122.199 39.8775 122.474 39.7601 122.791 39.7601C123.108 39.7601 123.378 39.8775 123.601 40.1122C123.836 40.3352 123.953 40.6052 123.953 40.9221C123.953 41.239 123.836 41.5148 123.601 41.7496C123.378 41.9726 123.108 42.0841 122.791 42.0841C122.474 42.0841 122.199 41.9726 121.964 41.7496C121.741 41.5148 121.629 41.239 121.629 40.9221Z" fill="black"/>
</svg>
