<svg width="36" height="36" viewBox="0 0 36 36" fill="none" xmlns="http://www.w3.org/2000/svg">
<path d="M8 1H28V-1H8V1ZM35 8V28H37V8H35ZM28 35H8V37H28V35ZM1 28V8H-1V28H1ZM8 35C4.13401 35 1 31.866 1 28H-1C-1 32.9706 3.02944 37 8 37V35ZM35 28C35 31.866 31.866 35 28 35V37C32.9706 37 37 32.9706 37 28H35ZM28 1C31.866 1 35 4.13401 35 8H37C37 3.02944 32.9706 -1 28 -1V1ZM8 -1C3.02944 -1 -1 3.02944 -1 8H1C1 4.13401 4.13401 1 8 1V-1Z" fill="#CDD1D7"/>
<path d="M18.0002 18.6668C18.3684 18.6668 18.6668 18.3684 18.6668 18.0002C18.6668 17.632 18.3684 17.3335 18.0002 17.3335C17.632 17.3335 17.3335 17.632 17.3335 18.0002C17.3335 18.3684 17.632 18.6668 18.0002 18.6668Z" fill="#A7ABB0" stroke="#A7ABB0" stroke-width="2" stroke-linecap="round" stroke-linejoin="round"/>
<path d="M18.0002 13.9998C18.3684 13.9998 18.6668 13.7014 18.6668 13.3332C18.6668 12.965 18.3684 12.6665 18.0002 12.6665C17.632 12.6665 17.3335 12.965 17.3335 13.3332C17.3335 13.7014 17.632 13.9998 18.0002 13.9998Z" fill="#A7ABB0" stroke="#A7ABB0" stroke-width="2" stroke-linecap="round" stroke-linejoin="round"/>
<path d="M18.0002 23.3333C18.3684 23.3333 18.6668 23.0349 18.6668 22.6667C18.6668 22.2985 18.3684 22 18.0002 22C17.632 22 17.3335 22.2985 17.3335 22.6667C17.3335 23.0349 17.632 23.3333 18.0002 23.3333Z" fill="#A7ABB0" stroke="#A7ABB0" stroke-width="2" stroke-linecap="round" stroke-linejoin="round"/>
</svg>
