<svg width="32" height="32" viewBox="0 0 32 32" fill="none" xmlns="http://www.w3.org/2000/svg">
<circle cx="16" cy="16" r="16" fill="#297AF7"/>
<g clip-path="url(#clip0)">
<path d="M17.8809 10.6874L9.07744 19.4914C9.03315 19.5359 9.00117 19.5919 8.98594 19.6522L8.01016 23.5688C7.98098 23.6867 8.01562 23.8121 8.10166 23.8981C8.16676 23.9632 8.25547 23.9992 8.34621 23.9992C8.374 23.9992 8.40243 23.9958 8.43009 23.9888L12.3466 23.0129C12.4077 22.9977 12.4631 22.9659 12.5074 22.9216L21.3116 14.1181L17.8809 10.6874Z" fill="white"/>
<path d="M23.4943 9.487L22.5143 8.50703C21.8594 7.85207 20.7179 7.85271 20.0637 8.50703L18.8633 9.70743L22.2939 13.1381L23.4943 11.9377C23.8215 11.6106 24.0017 11.1753 24.0017 10.7124C24.0017 10.2494 23.8215 9.81416 23.4943 9.487Z" fill="white"/>
</g>
<defs>
<clipPath id="clip0">
<rect width="16" height="16" fill="white" transform="translate(8 8)"/>
</clipPath>
</defs>
</svg>
