<svg width="28" height="28" viewBox="0 0 28 28" fill="none" xmlns="http://www.w3.org/2000/svg">
<path d="M14.8157 20.2101L20.9053 20.2096C21.1828 20.2107 21.4411 20.0702 21.5944 19.8388C21.7466 19.6073 21.7728 19.314 21.6627 19.0593C20.4208 16.1698 18.6782 14.784 17.8724 14.264L17.3238 7.45601C18.635 6.29057 18.8128 4.78113 18.8204 4.71174C18.8461 4.47969 18.7709 4.24707 18.6146 4.07216C18.4566 3.9025 18.2339 3.79873 18.0007 3.79871L9.9877 3.79876C9.75275 3.79819 9.52827 3.89903 9.37203 4.07511C9.21576 4.25002 9.14115 4.48439 9.16914 4.71762C9.31606 6.00257 10.1509 6.95758 10.6383 7.42051L10.0845 14.2896C9.30614 14.8382 7.53085 16.3174 6.35023 19.0605C6.24004 19.3152 6.26628 19.6073 6.41787 19.8394C6.44996 19.8866 6.48491 19.9297 6.52396 19.9688C6.6773 20.1221 6.88602 20.2108 7.107 20.2102L13.1669 20.2102L13.1663 26.2695C13.1663 26.4969 13.2584 26.7032 13.4077 26.8525C13.5569 27.0018 13.7633 27.0939 13.9907 27.0939C14.4466 27.0939 14.8151 26.7254 14.8151 26.2695L14.8157 20.2101Z" fill="#297AF7"/>
</svg>
