<svg width="24" height="24" viewBox="0 0 24 24" fill="none" xmlns="http://www.w3.org/2000/svg">
<path d="M15 21V19C15 17.9391 14.6444 16.9217 14.0115 16.1716C13.3786 15.4214 12.5201 15 11.625 15H4.875C3.97989 15 3.12145 15.4214 2.48851 16.1716C1.85558 16.9217 1.5 17.9391 1.5 19V21" stroke="#CDD1D7" stroke-width="2" stroke-linecap="round" stroke-linejoin="round"/>
<path d="M8.5 11C10.7091 11 12.5 9.20914 12.5 7C12.5 4.79086 10.7091 3 8.5 3C6.29086 3 4.5 4.79086 4.5 7C4.5 9.20914 6.29086 11 8.5 11Z" stroke="#CDD1D7" stroke-width="2" stroke-linecap="round" stroke-linejoin="round"/>
<path d="M21.5 20.9999V18.9999C21.4993 18.1136 21.2044 17.2527 20.6614 16.5522C20.1184 15.8517 19.3581 15.3515 18.5 15.1299" stroke="#CDD1D7" stroke-width="2" stroke-linecap="round" stroke-linejoin="round"/>
<path d="M16 3.12988C16.8604 3.35018 17.623 3.85058 18.1676 4.55219C18.7122 5.2538 19.0078 6.11671 19.0078 7.00488C19.0078 7.89305 18.7122 8.75596 18.1676 9.45757C17.623 10.1592 16.8604 10.6596 16 10.8799" stroke="#CDD1D7" stroke-width="2" stroke-linecap="round" stroke-linejoin="round"/>
</svg>
